<?xml version="1.0" standalone="no"?>
<!DOCTYPE svg PUBLIC "-//W3C//DTD SVG 20010904//EN"
 "http://www.w3.org/TR/2001/REC-SVG-20010904/DTD/svg10.dtd">
<svg version="1.0" xmlns="http://www.w3.org/2000/svg"
 width="512.000000pt" height="512.000000pt" viewBox="0 0 512.000000 512.000000"
 preserveAspectRatio="xMidYMid meet">
<metadata>
Created by potrace 1.11, written by Peter Selinger 2001-2013
</metadata>
<g transform="translate(0.000000,512.000000) scale(0.100000,-0.100000)"
fill="#000000" stroke="none">
<path d="M2073 5018 c-4 -7 -112 -193 -238 -413 l-230 -400 -473 -1 c-268 -1
-477 -5 -481 -10 -5 -5 -20 -29 -34 -54 -67 -122 -383 -671 -409 -712 -35 -56
-63 4 219 -486 117 -205 216 -378 219 -386 3 -7 -45 -100 -107 -207 -61 -107
-167 -292 -236 -412 l-124 -218 59 -102 c33 -56 70 -122 84 -147 14 -25 76
-133 138 -240 110 -191 131 -227 173 -303 l21 -37 476 0 476 0 17 -33 c10 -17
27 -48 38 -67 25 -41 225 -389 354 -615 31 -55 61 -102 65 -105 11 -7 947 -6
952 0 3 3 28 48 58 100 86 154 145 257 160 280 5 8 23 40 40 70 16 30 42 75
56 100 40 67 57 97 109 187 45 80 49 83 84 84 20 0 234 1 475 2 l440 2 29 50
c33 56 326 565 365 634 14 25 38 66 53 93 l28 48 -56 97 c-31 54 -138 240
-238 414 l-182 315 29 51 c16 28 123 215 238 415 l209 363 -21 35 c-11 19 -30
51 -41 70 -73 129 -410 716 -413 719 -2 2 -215 4 -474 4 -417 0 -471 2 -483
16 -11 13 -241 410 -319 551 -11 19 -49 86 -85 148 l-65 112 -473 0 c-366 0
-476 -3 -482 -12z m956 -1653 c10 -11 57 -92 310 -533 157 -274 162 -283 148
-310 -7 -15 -40 -72 -72 -127 -32 -55 -67 -116 -78 -135 -10 -19 -36 -64 -57
-100 -48 -82 -75 -131 -113 -200 -17 -30 -38 -66 -47 -80 -9 -14 -33 -55 -54
-93 l-37 -67 -477 2 -476 3 -32 55 c-17 30 -68 120 -114 200 -46 80 -91 159
-100 175 -10 17 -63 110 -119 207 -57 98 -101 183 -99 190 2 7 77 142 168 301
181 315 208 363 260 454 19 34 41 64 49 65 42 9 931 2 940 -7z"/>
</g>
</svg>
