<svg width="113" height="34" viewBox="0 0 113 34" fill="none" xmlns="http://www.w3.org/2000/svg">
<path fill-rule="evenodd" clip-rule="evenodd" d="M49.0917 18.7354H38.7233L33.3499 9.37122L38.7282 0H60.3639V3.94496H40.9729L37.863 9.36348L40.9777 14.7897H53.0137L49.0917 18.7354" fill="#003399"/>
<path fill-rule="evenodd" clip-rule="evenodd" d="M49.2722 7.39453H60.3639L56.4426 11.3402H49.2722V7.39453" fill="#003399"/>
<path fill-rule="evenodd" clip-rule="evenodd" d="M60.3639 18.7354H64.2859V7.39453H60.3639V18.7354Z" fill="#003399"/>
<path fill-rule="evenodd" clip-rule="evenodd" d="M32.6868 18.7355L24.1972 3.94507V11.835L28.1576 18.7355H32.6868" fill="#003399"/>
<path fill-rule="evenodd" clip-rule="evenodd" d="M8.48891 11.8349H24.1972L20.2752 15.7806H6.22399L4.52845 18.7354H0L10.7538 0C15.2347 0 19.7163 0 24.1972 0V3.94567H13.0174L8.48891 11.8349" fill="#003399"/>
<path fill-rule="evenodd" clip-rule="evenodd" d="M67.5769 7.39452L71.82 0H93.4564V3.94567H74.0653L72.0858 7.39452H67.5769" fill="#003399"/>
<path fill-rule="evenodd" clip-rule="evenodd" d="M74.35 11.3402H93.3528L95.3317 14.7898L98.1968 11.9074L95.6066 7.39453H72.0858L74.35 11.3402" fill="#003399"/>
<path fill-rule="evenodd" clip-rule="evenodd" d="M70.868 14.7898H95.3317L91.4097 18.7348H66.9467L70.868 14.7898" fill="#003399"/>
<path fill-rule="evenodd" clip-rule="evenodd" d="M5.37062 31.22H6.58492L4.23536 24.1288H2.33977L0 31.22H1.18492L1.82635 29.1842H4.7194L5.37062 31.22ZM3.05044 25.2906H3.47503L4.37316 28.1216H2.1621L3.05044 25.2906ZM9.41782 26.0358C8.06573 26.0358 7.24663 27.1681 7.24663 28.6874C7.24663 30.1968 8.05593 31.3488 9.41782 31.3488C10.1684 31.3488 10.6223 31.0807 10.8986 30.733H11.1358V31.22H12.2116V24H11.0966V26.6516H10.8595C10.593 26.2941 10.1586 26.0358 9.41782 26.0358ZM9.73399 30.396C8.81557 30.396 8.36161 29.6704 8.36161 28.6874C8.36161 27.7141 8.81557 26.9893 9.73399 26.9893C10.7112 26.9893 11.126 27.8035 11.126 28.6874C11.126 29.5909 10.7112 30.396 9.73399 30.396ZM17.6808 27.5157C17.5724 26.6319 16.8421 26.0358 15.6173 26.0358C14.196 26.0358 13.5546 26.7212 13.5546 27.5748C13.5546 28.3693 14.0876 28.7767 14.8381 28.9055L15.8845 29.085C16.4665 29.194 16.7036 29.3728 16.7036 29.7598C16.7036 30.2264 16.2888 30.4157 15.6474 30.4157C14.9857 30.4157 14.5716 30.2067 14.4828 29.6909H13.3671C13.4755 30.6936 14.196 31.3488 15.667 31.3488C17.0883 31.3488 17.8193 30.5747 17.8193 29.7303C17.8193 28.7866 17.2073 28.3102 16.2888 28.161L15.3117 28.002C14.8871 27.9323 14.6702 27.8232 14.6702 27.4953C14.6702 27.128 15.0354 26.9689 15.5782 26.9689C16.0916 26.9689 16.4966 27.0886 16.5651 27.5157H17.6808ZM21.2349 26.0358C19.6554 26.0358 18.6978 27.1477 18.6978 28.6874C18.6978 30.2369 19.6554 31.3488 21.2349 31.3488C22.8143 31.3488 23.7719 30.2369 23.7719 28.6874C23.7719 27.1477 22.8143 26.0358 21.2349 26.0358ZM21.2349 30.396C20.2577 30.396 19.8135 29.5909 19.8135 28.6874C19.8135 27.8035 20.2577 26.9893 21.2349 26.9893C22.212 26.9893 22.6562 27.8035 22.6562 28.6874C22.6562 29.5909 22.212 30.396 21.2349 30.396ZM28.1548 26.1646H27.7303C26.9503 26.1646 26.5362 26.4728 26.3285 26.7508H26.0914V26.1646H25.0156V31.22H26.1312V28.8563C26.1312 27.7937 26.674 27.2075 27.7009 27.2075H28.1548V26.1646ZM31.995 26.0358C31.2549 26.0358 30.8206 26.2941 30.5541 26.6516H30.3169V24H29.2013V31.22H30.2771V30.733H30.5142C30.7905 31.0807 31.2452 31.3488 31.995 31.3488C33.3576 31.3488 34.1669 30.1968 34.1669 28.6874C34.1669 27.1681 33.3478 26.0358 31.995 26.0358ZM31.6788 30.396C30.7017 30.396 30.2876 29.5909 30.2876 28.6874C30.2876 27.8035 30.7017 26.9893 31.6788 26.9893C32.5973 26.9893 33.0512 27.7141 33.0512 28.6874C33.0512 29.6704 32.5973 30.396 31.6788 30.396ZM36.8025 26.1646V24.6946H35.6876V26.1646H34.8874V27.1181H35.6876V29.7303C35.6876 30.8822 36.4374 31.22 37.5531 31.22H37.9875V30.2468H37.5727C37.0103 30.2468 36.8025 30.0082 36.8025 29.5811V27.1181H37.9875V26.1646H36.8025ZM39.3102 25.0823H40.4552V24H39.3102V25.0823ZM39.32 31.22H40.4356V26.1646H39.32V31.22ZM44.2359 26.0358C42.6565 26.0358 41.6989 27.1477 41.6989 28.6874C41.6989 30.2369 42.6565 31.3488 44.2359 31.3488C45.8154 31.3488 46.773 30.2369 46.773 28.6874C46.773 27.1477 45.8154 26.0358 44.2359 26.0358ZM44.2359 30.396C43.2588 30.396 42.8146 29.5909 42.8146 28.6874C42.8146 27.8035 43.2588 26.9893 44.2359 26.9893C45.2131 26.9893 45.658 27.8035 45.658 28.6874C45.658 29.5909 45.2131 30.396 44.2359 30.396ZM52.6668 31.22V28.0618C52.6668 26.8 52.0352 26.0358 50.781 26.0358C50.1102 26.0358 49.6163 26.2638 49.3303 26.6516H49.0931V26.1646H48.0173V31.22H49.133V28.5185C49.133 27.724 49.6359 27.0386 50.4361 27.0386C51.1762 27.0386 51.5511 27.4559 51.5511 28.2799V31.22H52.6668ZM59.8735 27.3665V28.3799H61.7985C61.7691 29.5318 61.1963 30.2763 59.9722 30.2763C58.5012 30.2763 57.8297 29.1047 57.8297 27.6747C57.8297 26.2343 58.511 25.0823 59.9722 25.0823C60.8703 25.0823 61.3641 25.4398 61.5516 26.0654H62.7855C62.519 24.8043 61.5222 24 59.9722 24C57.8003 24 56.6259 25.5693 56.6259 27.6747C56.6259 29.7802 57.7905 31.3488 59.9624 31.3488C62.1441 31.3488 62.9925 29.7697 62.9925 28.1413V27.3665H59.8735ZM67.4552 31.22H68.4919V27.8633C68.4919 26.6114 67.6224 26.0358 66.3193 26.0358C65.1351 26.0358 64.2957 26.6114 64.2467 27.565H65.3519C65.3918 27.1779 65.7177 26.9197 66.3591 26.9197C67.0999 26.9197 67.4154 27.287 67.4154 27.8429V27.9921H65.9346C64.4838 27.9921 63.9403 28.8957 63.9403 29.6909C63.9403 30.5641 64.5825 31.3488 65.7373 31.3488C66.4382 31.3488 66.9117 31.1405 67.2181 30.7534H67.4552V31.22ZM66.0829 30.4354C65.4407 30.4354 65.0658 30.137 65.0658 29.6212C65.0658 29.0948 65.4211 28.7866 66.1318 28.7866H67.4154V29.1743C67.4154 29.8794 66.8327 30.4354 66.0829 30.4354ZM73.8912 27.5157C73.7827 26.6319 73.0525 26.0358 71.8284 26.0358C70.4063 26.0358 69.7649 26.7212 69.7649 27.5748C69.7649 28.3693 70.2979 28.7767 71.0485 28.9055L72.0949 29.085C72.6769 29.194 72.914 29.3728 72.914 29.7598C72.914 30.2264 72.4992 30.4157 71.8578 30.4157C71.1968 30.4157 70.782 30.2067 70.6931 29.6909H69.5775C69.6859 30.6936 70.4063 31.3488 71.8774 31.3488C73.2994 31.3488 74.0297 30.5747 74.0297 29.7303C74.0297 28.7866 73.4176 28.3102 72.4992 28.161L71.522 28.002C71.0974 27.9323 70.8806 27.8232 70.8806 27.4953C70.8806 27.128 71.2457 26.9689 71.7885 26.9689C72.3019 26.9689 72.7069 27.0886 72.7762 27.5157H73.8912ZM83.1509 25.9957C82.9935 24.7839 81.9863 24 80.4859 24C78.8274 24 77.9188 24.9036 77.9188 26.0358C77.9188 27.0984 78.5805 27.6944 79.6759 27.9027L81.0483 28.1709C81.6799 28.3003 82.1143 28.5586 82.1143 29.2236C82.1143 29.9287 81.4826 30.3066 80.6041 30.3066C79.7255 30.3066 78.9953 30.0181 78.8372 29.1441H77.6327C77.7607 30.4551 78.847 31.3488 80.5544 31.3488C82.4109 31.3488 83.309 30.3263 83.309 29.1743C83.309 27.9429 82.5389 27.3764 81.4631 27.1378C81.2064 27.0886 80.3572 26.9295 80.1403 26.8803C79.5975 26.7803 79.1135 26.5917 79.1135 26.0056C79.1135 25.3504 79.7255 25.0429 80.4656 25.0429C81.3448 25.0429 81.7988 25.3603 81.9471 25.9957H83.1509ZM86.2216 33.2066L89.242 26.1646H88.0969L86.8239 29.2137H86.5672L85.1654 26.1646H83.9903L86.1223 30.7232L85.0864 33.2066H86.2216ZM94.0992 27.5157C93.9908 26.6319 93.2598 26.0358 92.0357 26.0358C90.6144 26.0358 89.973 26.7212 89.973 27.5748C89.973 28.3693 90.506 28.7767 91.2558 28.9055L92.3022 29.085C92.8849 29.194 93.122 29.3728 93.122 29.7598C93.122 30.2264 92.7072 30.4157 92.0658 30.4157C91.4041 30.4157 90.9893 30.2067 90.9005 29.6909H89.7855C89.8939 30.6936 90.6144 31.3488 92.0854 31.3488C93.5067 31.3488 94.2377 30.5747 94.2377 29.7303C94.2377 28.7866 93.6249 28.3102 92.7072 28.161L91.7301 28.002C91.3055 27.9323 91.0886 27.8232 91.0886 27.4953C91.0886 27.128 91.4538 26.9689 91.9966 26.9689C92.51 26.9689 92.915 27.0886 92.9835 27.5157H94.0992ZM96.8041 26.1646V24.6946H95.6884V26.1646H94.8889V27.1181H95.6884V29.7303C95.6884 30.8822 96.439 31.22 97.5539 31.22H97.9883V30.2468H97.5742C97.0111 30.2468 96.8041 30.0082 96.8041 29.5811V27.1181H97.9883V26.1646H96.8041ZM103.784 28.4094C103.753 27.0984 102.954 26.0358 101.444 26.0358C99.9035 26.0358 98.9662 27.0787 98.9662 28.6578C98.9662 30.2369 99.8937 31.3488 101.473 31.3488C102.776 31.3488 103.527 30.6936 103.714 29.75H102.579C102.431 30.1574 102.085 30.396 101.483 30.396C100.575 30.396 100.101 29.8196 100.071 28.7866H103.784V28.4094ZM101.434 26.9295C102.174 26.9295 102.569 27.3862 102.638 27.9527H100.121C100.249 27.3665 100.644 26.9295 101.434 26.9295ZM110.526 26.0358C109.904 26.0358 109.44 26.2441 109.134 26.6516H108.897C108.63 26.2441 108.196 26.0358 107.594 26.0358C106.972 26.0358 106.577 26.2343 106.33 26.6213H106.093V26.1646H105.017V31.22H106.133V28.4692C106.133 27.6839 106.468 27.0386 107.209 27.0386C107.801 27.0386 108.068 27.446 108.068 28.1906V31.22H109.184V28.3397C109.184 27.5854 109.549 27.0386 110.25 27.0386C110.852 27.0386 111.108 27.4263 111.108 28.1807V31.22H112.223V27.9921C112.223 26.8 111.7 26.0358 110.526 26.0358V26.0358Z" fill="#003399"/>
</svg>
