<svg width="223" height="19" viewBox="0 0 223 19" fill="none" xmlns="http://www.w3.org/2000/svg">
<path fill-rule="evenodd" clip-rule="evenodd" d="M49.0917 18.7354H38.7233L33.3499 9.37122L38.7282 0H60.3639V3.94496H40.9729L37.863 9.36348L40.9777 14.7897H53.0137L49.0917 18.7354Z" fill="#003399"/>
<path fill-rule="evenodd" clip-rule="evenodd" d="M49.2722 7.39453H60.3639L56.4426 11.3402H49.2722V7.39453Z" fill="#003399"/>
<path fill-rule="evenodd" clip-rule="evenodd" d="M60.3639 18.7354H64.2859V7.39453H60.3639V18.7354Z" fill="#003399"/>
<path fill-rule="evenodd" clip-rule="evenodd" d="M32.6868 18.7355L24.1972 3.94507V11.835L28.1576 18.7355H32.6868Z" fill="#003399"/>
<path fill-rule="evenodd" clip-rule="evenodd" d="M8.48891 11.8349H24.1972L20.2752 15.7806H6.22399L4.52845 18.7354H0L10.7538 0C15.2347 0 19.7163 0 24.1972 0V3.94567H13.0174L8.48891 11.8349Z" fill="#003399"/>
<path fill-rule="evenodd" clip-rule="evenodd" d="M67.5769 7.39452L71.82 0H93.4564V3.94567H74.0653L72.0858 7.39452H67.5769Z" fill="#003399"/>
<path fill-rule="evenodd" clip-rule="evenodd" d="M74.35 11.3402H93.3528L95.3317 14.7898L98.1968 11.9074L95.6066 7.39453H72.0858L74.35 11.3402Z" fill="#003399"/>
<path fill-rule="evenodd" clip-rule="evenodd" d="M70.868 14.7898H95.3317L91.4097 18.7348H66.9467L70.868 14.7898Z" fill="#003399"/>
<path fill-rule="evenodd" clip-rule="evenodd" d="M115.584 7.27005H116.799L114.449 0.178827H112.554L110.214 7.27005H111.399L112.04 5.23423H114.933L115.584 7.27005ZM113.264 1.34064H113.689L114.587 4.17164H112.376L113.264 1.34064ZM119.632 2.08586C118.28 2.08586 117.46 3.21812 117.46 4.73742C117.46 6.24686 118.27 7.39883 119.632 7.39883C120.382 7.39883 120.836 7.13072 121.112 6.78309H121.35V7.27005H122.425V0.0500488H121.31V2.7016H121.073C120.807 2.34412 120.372 2.08586 119.632 2.08586ZM119.948 6.44601C119.029 6.44601 118.575 5.72049 118.575 4.73742C118.575 3.7642 119.029 3.03938 119.948 3.03938C120.925 3.03938 121.34 3.85357 121.34 4.73742C121.34 5.64097 120.925 6.44601 119.948 6.44601ZM127.895 3.56575C127.786 2.6819 127.056 2.08586 125.831 2.08586C124.41 2.08586 123.768 2.77127 123.768 3.62486C123.768 4.41934 124.301 4.82679 125.052 4.95557L126.098 5.13501C126.68 5.24409 126.917 5.42283 126.917 5.80986C126.917 6.27642 126.503 6.46572 125.861 6.46572C125.2 6.46572 124.785 6.25672 124.697 5.7409H123.581C123.689 6.74368 124.41 7.39883 125.881 7.39883C127.302 7.39883 128.033 6.62475 128.033 5.78031C128.033 4.83664 127.421 4.36023 126.503 4.21105L125.526 4.05201C125.101 3.98235 124.884 3.87327 124.884 3.54535C124.884 3.17801 125.249 3.01897 125.792 3.01897C126.305 3.01897 126.71 3.1386 126.779 3.56575H127.895ZM131.449 2.08586C129.869 2.08586 128.912 3.19772 128.912 4.73742C128.912 6.28697 129.869 7.39883 131.449 7.39883C133.028 7.39883 133.986 6.28697 133.986 4.73742C133.986 3.19772 133.028 2.08586 131.449 2.08586ZM131.449 6.44601C130.472 6.44601 130.027 5.64097 130.027 4.73742C130.027 3.85357 130.472 3.03938 131.449 3.03938C132.426 3.03938 132.87 3.85357 132.87 4.73742C132.87 5.64097 132.426 6.44601 131.449 6.44601ZM138.369 2.21464H137.944C137.164 2.21464 136.75 2.52286 136.542 2.80083H136.305V2.21464H135.229V7.27005H136.345V4.90631C136.345 3.84372 136.888 3.25753 137.915 3.25753H138.369V2.21464ZM142.209 2.08586C141.469 2.08586 141.034 2.34412 140.768 2.7016H140.531V0.0500488H139.415V7.27005H140.491V6.78309H140.728C141.004 7.13072 141.459 7.39883 142.209 7.39883C143.571 7.39883 144.381 6.24686 144.381 4.73742C144.381 3.21812 143.562 2.08586 142.209 2.08586ZM141.893 6.44601C140.916 6.44601 140.501 5.64097 140.501 4.73742C140.501 3.85357 140.916 3.03938 141.893 3.03938C142.811 3.03938 143.265 3.7642 143.265 4.73742C143.265 5.72049 142.811 6.44601 141.893 6.44601ZM147.016 2.21464V0.744604H145.901V2.21464H145.101V3.16816H145.901V5.78031C145.901 6.93227 146.651 7.27005 147.767 7.27005H148.201V6.29683H147.787C147.224 6.29683 147.016 6.05827 147.016 5.63112V3.16816H148.201V2.21464H147.016ZM149.524 1.13235H150.669V0.0500488H149.524V1.13235ZM149.534 7.27005H150.65V2.21464H149.534V7.27005ZM154.45 2.08586C152.87 2.08586 151.913 3.19772 151.913 4.73742C151.913 6.28697 152.87 7.39883 154.45 7.39883C156.029 7.39883 156.987 6.28697 156.987 4.73742C156.987 3.19772 156.029 2.08586 154.45 2.08586ZM154.45 6.44601C153.473 6.44601 153.028 5.64097 153.028 4.73742C153.028 3.85357 153.473 3.03938 154.45 3.03938C155.427 3.03938 155.872 3.85357 155.872 4.73742C155.872 5.64097 155.427 6.44601 154.45 6.44601ZM162.881 7.27005V4.11183C162.881 2.85009 162.249 2.08586 160.995 2.08586C160.324 2.08586 159.83 2.31386 159.544 2.7016H159.307V2.21464H158.231V7.27005H159.347V4.56853C159.347 3.77405 159.85 3.08864 160.65 3.08864C161.39 3.08864 161.765 3.50594 161.765 4.32997V7.27005H162.881ZM170.087 3.41657V4.4299H172.012C171.983 5.58186 171.41 6.32638 170.186 6.32638C168.715 6.32638 168.044 5.15472 168.044 3.72479C168.044 2.28431 168.725 1.13235 170.186 1.13235C171.084 1.13235 171.578 1.48983 171.765 2.11542H172.999C172.733 0.854382 171.736 0.0500488 170.186 0.0500488C168.014 0.0500488 166.84 1.61931 166.84 3.72479C166.84 5.83027 168.004 7.39883 170.176 7.39883C172.358 7.39883 173.206 5.81972 173.206 4.19135V3.41657H170.087ZM177.669 7.27005H178.706V3.91338C178.706 2.66149 177.836 2.08586 176.533 2.08586C175.349 2.08586 174.51 2.66149 174.461 3.61501H175.566C175.606 3.22797 175.932 2.96972 176.573 2.96972C177.314 2.96972 177.629 3.33705 177.629 3.89297V4.04216H176.148C174.698 4.04216 174.154 4.94572 174.154 5.7409C174.154 6.6142 174.796 7.39883 175.951 7.39883C176.652 7.39883 177.126 7.19053 177.432 6.80349H177.669V7.27005ZM176.297 6.48542C175.655 6.48542 175.28 6.18705 175.28 5.67123C175.28 5.14486 175.635 4.83664 176.346 4.83664H177.629V5.22438C177.629 5.92949 177.047 6.48542 176.297 6.48542ZM184.105 3.56575C183.997 2.6819 183.266 2.08586 182.042 2.08586C180.62 2.08586 179.979 2.77127 179.979 3.62486C179.979 4.41934 180.512 4.82679 181.262 4.95557L182.309 5.13501C182.891 5.24409 183.128 5.42283 183.128 5.80986C183.128 6.27642 182.713 6.46572 182.072 6.46572C181.411 6.46572 180.996 6.25672 180.907 5.7409H179.791C179.9 6.74368 180.62 7.39883 182.091 7.39883C183.513 7.39883 184.244 6.62475 184.244 5.78031C184.244 4.83664 183.631 4.36023 182.713 4.21105L181.736 4.05201C181.311 3.98235 181.094 3.87327 181.094 3.54535C181.094 3.17801 181.46 3.01897 182.002 3.01897C182.516 3.01897 182.921 3.1386 182.99 3.56575H184.105ZM193.365 2.04575C193.207 0.833975 192.2 0.0500488 190.7 0.0500488C189.041 0.0500488 188.133 0.953604 188.133 2.08586C188.133 3.14846 188.794 3.74449 189.89 3.95279L191.262 4.2209C191.894 4.35038 192.328 4.60864 192.328 5.27364C192.328 5.97875 191.697 6.35664 190.818 6.35664C189.939 6.35664 189.209 6.06812 189.051 5.19412H187.847C187.975 6.50512 189.061 7.39883 190.768 7.39883C192.625 7.39883 193.523 6.37634 193.523 5.22438C193.523 3.9929 192.753 3.42642 191.677 3.18786C191.42 3.1386 190.571 2.97957 190.354 2.93031C189.811 2.83038 189.327 2.64179 189.327 2.0556C189.327 1.40046 189.939 1.09294 190.679 1.09294C191.559 1.09294 192.013 1.41031 192.161 2.04575H193.365ZM196.436 9.2566L199.456 2.21464H198.311L197.038 5.26379H196.781L195.379 2.21464H194.204L196.336 6.77323L195.3 9.2566H196.436ZM204.313 3.56575C204.205 2.6819 203.474 2.08586 202.25 2.08586C200.828 2.08586 200.187 2.77127 200.187 3.62486C200.187 4.41934 200.72 4.82679 201.47 4.95557L202.516 5.13501C203.099 5.24409 203.336 5.42283 203.336 5.80986C203.336 6.27642 202.921 6.46572 202.28 6.46572C201.618 6.46572 201.203 6.25672 201.114 5.7409H199.999C200.108 6.74368 200.828 7.39883 202.299 7.39883C203.721 7.39883 204.452 6.62475 204.452 5.78031C204.452 4.83664 203.839 4.36023 202.921 4.21105L201.944 4.05201C201.519 3.98235 201.302 3.87327 201.302 3.54535C201.302 3.17801 201.668 3.01897 202.21 3.01897C202.724 3.01897 203.129 3.1386 203.197 3.56575H204.313ZM207.018 2.21464V0.744604H205.902V2.21464H205.103V3.16816H205.902V5.78031C205.902 6.93227 206.653 7.27005 207.768 7.27005H208.202V6.29683H207.788C207.225 6.29683 207.018 6.05827 207.018 5.63112V3.16816H208.202V2.21464H207.018ZM213.997 4.45946C213.967 3.14846 213.168 2.08586 211.658 2.08586C210.117 2.08586 209.18 3.12875 209.18 4.70786C209.18 6.28697 210.108 7.39883 211.687 7.39883C212.99 7.39883 213.741 6.74368 213.928 5.80001H212.793C212.645 6.20746 212.299 6.44601 211.697 6.44601C210.789 6.44601 210.315 5.86968 210.285 4.83664H213.997V4.45946ZM211.648 2.97957C212.388 2.97957 212.783 3.43627 212.852 4.00275H210.335C210.463 3.41657 210.858 2.97957 211.648 2.97957ZM220.74 2.08586C220.118 2.08586 219.653 2.29416 219.348 2.7016H219.111C218.844 2.29416 218.41 2.08586 217.807 2.08586C217.186 2.08586 216.791 2.28431 216.544 2.67134H216.307V2.21464H215.231V7.27005H216.347V4.51927C216.347 3.73394 216.682 3.08864 217.423 3.08864C218.015 3.08864 218.282 3.49609 218.282 4.2406V7.27005H219.397V4.38979C219.397 3.63542 219.763 3.08864 220.463 3.08864C221.066 3.08864 221.322 3.47638 221.322 4.23075V7.27005H222.437V4.04216C222.437 2.85009 221.914 2.08586 220.74 2.08586Z" fill="#003399"/>
</svg>
